<?xml version="1.0" encoding="UTF-8" standalone="no"?>
<svg
   xmlns:dc="http://purl.org/dc/elements/1.1/"
   xmlns:cc="http://creativecommons.org/ns#"
   xmlns:rdf="http://www.w3.org/1999/02/22-rdf-syntax-ns#"
   xmlns:svg="http://www.w3.org/2000/svg"
   xmlns="http://www.w3.org/2000/svg"
   xmlns:sodipodi="http://sodipodi.sourceforge.net/DTD/sodipodi-0.dtd"
   xmlns:inkscape="http://www.inkscape.org/namespaces/inkscape"
   width="17.490822mm"
   height="21.442778mm"
   viewBox="0 0 17.490822 21.442778"
   version="1.1"
   id="svg8"
   inkscape:version="1.0.2 (e86c870879, 2021-01-15)"
   sodipodi:docname="watermark.svg">
  <defs
     id="defs2" />
  <sodipodi:namedview
     id="base"
     pagecolor="#ffffff"
     bordercolor="#666666"
     borderopacity="1.0"
     inkscape:pageopacity="0.0"
     inkscape:pageshadow="2"
     inkscape:zoom="2.4030665"
     inkscape:cx="53.63578"
     inkscape:cy="39.502228"
     inkscape:document-units="mm"
     inkscape:current-layer="layer2"
     inkscape:document-rotation="0"
     showgrid="false"
     inkscape:window-width="1440"
     inkscape:window-height="836"
     inkscape:window-x="0"
     inkscape:window-y="0"
     inkscape:window-maximized="1"
     fit-margin-top="0"
     fit-margin-left="0"
     fit-margin-right="0"
     fit-margin-bottom="0" />
  <metadata
     id="metadata5">
    <rdf:RDF>
      <cc:Work
         rdf:about="">
        <dc:format>image/svg+xml</dc:format>
        <dc:type
           rdf:resource="http://purl.org/dc/dcmitype/StillImage" />
        <dc:title />
      </cc:Work>
    </rdf:RDF>
  </metadata>
  <g
     inkscape:groupmode="layer"
     id="layer3"
     inkscape:label="Layer 3"
     transform="translate(-13.105111,-7.842559)"
     style="display:inline" />
  <g
     inkscape:groupmode="layer"
     id="layer2"
     inkscape:label="Layer 2"
     transform="translate(-13.105111,-7.842559)">
    <g
       id="g606"
       transform="matrix(0.0330046,0,0,0.0330046,11.778287,6.214112)"
       style="opacity:0.27">
      <g
         id="g456">
        <ellipse
           class="st0"
           cx="312.48999"
           cy="65.900002"
           rx="16.27"
           ry="16.559999"
           id="ellipse454" />
      </g>
      <g
         id="g460">
        <ellipse
           transform="matrix(0.3968,-0.9179,0.9179,0.3968,145.0798,379.0716)"
           class="st0"
           cx="360.98001"
           cy="79.139999"
           rx="17.6"
           ry="19.98"
           id="ellipse458" />
      </g>
      <g
         id="g464">
        <ellipse
           transform="matrix(0.8273,-0.5618,0.5618,0.8273,5.8412,246.7246)"
           class="st0"
           cx="404.14001"
           cy="113.86"
           rx="16.030001"
           ry="16.559999"
           id="ellipse462" />
      </g>
      <g
         id="g468">
        <ellipse
           transform="matrix(0.998,-0.0627,0.0627,0.998,-16.2086,27.998)"
           class="st0"
           cx="438.04999"
           cy="272.29001"
           rx="21.389999"
           ry="21.09"
           id="ellipse466" />
      </g>
      <g
         id="g472">
        <ellipse
           transform="matrix(0.998,-0.0627,0.0627,0.998,-12.7226,27.6678)"
           class="st0"
           cx="434.53"
           cy="216.57001"
           rx="21.389999"
           ry="21.09"
           id="ellipse470" />
      </g>
      <g
         id="g476">
        <ellipse
           transform="matrix(0.9877,-0.1562,0.1562,0.9877,-20.0398,68.687)"
           class="st0"
           cx="427.10001"
           cy="161.87"
           rx="18.610001"
           ry="18.360001"
           id="ellipse474" />
      </g>
      <g
         id="g480">
        <ellipse
           class="st0"
           cx="451.72"
           cy="325.28"
           rx="13.94"
           ry="16.559999"
           id="ellipse478" />
      </g>
      <g
         id="g484">
        <ellipse
           class="st0"
           cx="457.48999"
           cy="379.19"
           rx="14.12"
           ry="16.559999"
           id="ellipse482" />
      </g>
      <g
         id="g488">
        <ellipse
           class="st0"
           cx="475.10999"
           cy="431.89001"
           rx="15.18"
           ry="16.559999"
           id="ellipse486" />
      </g>
      <g
         id="g492">
        <path
           class="st1"
           d="M 457.1,383.84 C 450.66,359.86 447.77,334.9 445.57,310.21 442.29,273.41 436.84,236.49 430.92,200 421.32,140.82 392.38,87.83 328.82,76.68 247.6,62.44 70.56,45.72 51.38,173.96 c -9.34,62.45 41.36,130.89 136.14,108.71 -18.29,28.23 -33.06,60.5 -41.4,93.05 -7.92,30.93 -8.07,59.2 9.39,86.71 15.27,24.06 38.89,42.37 64.93,53.5 34.11,14.59 68.91,16.73 105.28,17.24 36.85,0.52 73.66,-0.62 110.45,-5.12 33.69,-4.12 71.43,-10.46 100.73,-28.97 3.1,-1.96 7.37,-4.18 9.65,-7.2 -5.11,6.79 -42.12,-23.43 -45.97,-27.28 C 486.62,450.62 476.02,433 468.02,415 463.51,404.89 459.96,394.46 457.1,383.84 Z"
           id="path490" />
      </g>
      <g
         id="g496">
        <path
           class="st2"
           d="m 187.21,282.69 c 0,0 120.84,91.61 78.61,246.44 0,0 -146.49,-11.21 -120.28,-160.23 1.93,-10.96 41.67,-86.21 41.67,-86.21 z"
           id="path494" />
      </g>
      <g
         id="g500">
        <path
           class="st0"
           d="m 347.88,545.93 c -16.62,0 -33.24,-0.7 -49.79,-2.1 -36.35,-3.08 -77.56,-6.56 -111.16,-28.91 -27.15,-18.06 -46.77,-45.54 -53.82,-75.39 -4.38,-18.53 -3.4,-39.86 2.98,-65.22 6.28,-24.92 16.53,-50.16 31.86,-78.24 -17.31,1.8 -33.48,0.74 -48.24,-3.19 -52.8,-14.03 -86.46,-65.79 -78.29,-120.41 5.01,-33.52 22.16,-62.33 48.3,-81.15 43.71,-31.47 101.59,-34.63 141.29,-34.3 21.05,0.19 43.19,1.82 69.67,5.16 34.57,4.36 70.17,12.07 96.33,38.8 19.68,20.11 33.13,47.76 39.97,82.17 6.38,32.14 10.01,65.14 13.51,97.05 3.68,33.49 7.48,68.12 14.47,101.21 l 0.16,0.77 c 0,0 0,0.01 0,0.02 4.83,22.2 15.06,43.6 29.58,61.92 13.99,17.65 29.82,25.98 49.87,36.52 l 5.14,2.71 c 2.9,1.54 4.87,4.39 5.28,7.65 0.41,3.26 -0.81,6.51 -3.24,8.72 -13.47,12.17 -55.98,27.82 -78.05,32.44 -14.51,3.02 -31.39,6.43 -48.2,8.66 -25.68,3.4 -51.65,5.11 -77.62,5.11 z M 187.21,272.62 c 3.18,0 6.23,1.51 8.15,4.16 2.36,3.26 2.55,7.61 0.49,11.07 -20.32,34.02 -33.1,63.06 -40.24,91.38 -5.58,22.15 -6.53,40.36 -2.92,55.67 5.89,24.94 22.43,48 45.38,63.26 29.3,19.48 67.77,22.74 101.71,25.61 40.98,3.48 82.38,2.49 123.06,-2.92 16.14,-2.14 32.59,-5.47 46.74,-8.41 16.18,-3.38 39.8,-12 55.17,-19.54 -16.51,-8.99 -32.07,-18.92 -45.83,-36.27 -16.42,-20.71 -28,-44.96 -33.48,-70.14 v -0.01 c 0,0 0,0 0,-0.01 l -0.2,-0.94 C 438.06,351.51 434.2,316.37 430.47,282.4 427.01,250.92 423.44,218.36 417.22,187.08 411.16,156.57 399.52,132.34 382.61,115.07 361.99,94 333.93,86.68 298.16,82.17 c -25.69,-3.23 -47.08,-4.83 -67.33,-5 -36.91,-0.36 -90.44,2.48 -129.35,30.5 -21.69,15.62 -35.94,39.69 -40.15,67.79 -6.65,44.46 20.67,86.58 63.55,97.97 17.78,4.72 37.45,4.55 60.11,-0.56 0.74,-0.17 1.49,-0.25 2.22,-0.25 z"
           id="path498" />
      </g>
      <g
         id="g510">
        <g
           id="g504">
          <ellipse
             class="st0"
             cx="327.92001"
             cy="161.21001"
             rx="17.719999"
             ry="22.629999"
             id="ellipse502" />
        </g>
        <g
           id="g508">
          <ellipse
             class="st3"
             cx="335.5"
             cy="156.7"
             rx="9.6300001"
             ry="10.84"
             id="ellipse506" />
        </g>
      </g>
      <g
         id="g514">
        <path
           class="st0"
           d="m 155.61,373.86 c 2.8,1.14 6.88,2.16 10.55,2.83 3.78,0.71 7.65,1.22 11.56,1.58 7.81,0.73 15.75,0.83 23.69,0.53 7.95,-0.22 15.9,-1.02 23.86,-1.93 l 11.9,-1.71 11.86,-2.12 -11.59,3.35 -11.72,2.95 c -7.88,1.74 -15.81,3.4 -23.86,4.46 -8.04,1.16 -16.18,1.91 -24.42,2 -4.12,0.05 -8.26,-0.05 -12.43,-0.39 -4.28,-0.38 -8.15,-0.78 -12.97,-2.15 -2.68,-0.76 -4.24,-3.55 -3.48,-6.23 0.76,-2.68 3.55,-4.24 6.23,-3.48 0.18,0.05 0.35,0.11 0.52,0.18 z"
           id="path512" />
      </g>
      <g
         id="g518">
        <path
           class="st0"
           d="m 147.5,423.59 c 7.53,3.34 16.15,6 24.63,7.85 8.56,1.89 17.32,2.95 26.13,3.23 4.41,0.27 8.82,-0.04 13.25,-0.16 4.38,-0.52 8.85,-0.71 13.19,-1.66 8.82,-1.32 17.31,-4.21 25.71,-7.39 -8.04,3.94 -16.34,7.67 -25.16,9.84 -4.34,1.39 -8.84,2 -13.31,2.96 -4.51,0.55 -9.04,1.28 -13.6,1.44 -9.12,0.56 -18.33,0.32 -27.46,-0.82 -9.2,-1.16 -18.06,-2.93 -27.28,-6.02 -2.64,-0.89 -4.06,-3.74 -3.18,-6.39 0.88,-2.65 3.74,-4.06 6.39,-3.18 0.15,0.05 0.29,0.11 0.43,0.17 z"
           id="path516" />
      </g>
      <g
         id="g522">
        <path
           class="st0"
           d="m 172.08,480.07 c 5.25,2.15 11.55,3.8 17.61,4.92 6.14,1.12 12.42,1.85 18.74,1.96 6.31,0.13 12.69,-0.08 19.01,-0.99 6.35,-0.73 12.6,-2.23 18.83,-3.92 -5.94,2.47 -12.02,4.81 -18.35,6.38 -6.28,1.75 -12.76,2.83 -19.3,3.55 -6.54,0.73 -13.17,0.84 -19.81,0.51 -6.71,-0.39 -13.14,-1.11 -20.14,-2.94 -2.7,-0.71 -4.31,-3.47 -3.61,-6.17 0.71,-2.7 3.47,-4.31 6.17,-3.61 0.21,0.05 0.41,0.12 0.61,0.2 z"
           id="path520" />
      </g>
      <g
         id="g584">
        <g
           id="g532">
          <g
             id="g526">
            <circle
               class="st4"
               cx="267.45001"
               cy="374.73999"
               r="24.379999"
               id="circle524" />
          </g>
          <g
             id="g530">
            <path
               class="st0"
               d="m 243.07,374.74 c 0.01,-6.37 2.28,-12.79 6.65,-17.73 4.29,-4.97 10.67,-8.46 17.73,-9.15 7.03,-0.74 14.66,1.57 20.29,6.59 5.63,4.98 9.19,12.57 9.12,20.29 0.07,7.72 -3.46,15.33 -9.1,20.31 -5.63,5.04 -13.28,7.34 -20.31,6.6 -7.06,-0.69 -13.45,-4.19 -17.74,-9.17 -4.37,-4.95 -6.62,-11.38 -6.64,-17.74 z m 0,0 c -0.05,6.42 2.94,12.67 7.64,16.74 4.72,4.1 11.02,5.84 16.74,5.11 5.75,-0.7 10.79,-3.64 14.17,-7.68 3.43,-4.03 5.15,-9.1 5.18,-14.17 -0.03,-5.06 -1.72,-10.15 -5.16,-14.18 -3.37,-4.05 -8.42,-6.99 -14.18,-7.69 -5.73,-0.73 -12.03,1.03 -16.74,5.13 -4.72,4.06 -7.7,10.32 -7.65,16.74 z"
               id="path528" />
          </g>
        </g>
        <g
           id="g542">
          <g
             id="g536">
            <circle
               class="st4"
               cx="257.01001"
               cy="340.42001"
               r="24.379999"
               id="circle534" />
          </g>
          <g
             id="g540">
            <path
               class="st0"
               d="m 232.63,340.42 c 0.01,-6.37 2.28,-12.79 6.65,-17.73 4.29,-4.97 10.67,-8.46 17.73,-9.15 7.03,-0.74 14.66,1.57 20.29,6.59 5.63,4.98 9.19,12.57 9.12,20.29 0.07,7.72 -3.46,15.33 -9.1,20.31 -5.63,5.04 -13.28,7.34 -20.31,6.6 -7.06,-0.69 -13.45,-4.19 -17.74,-9.17 -4.37,-4.95 -6.62,-11.37 -6.64,-17.74 z m 0,0 c -0.05,6.42 2.94,12.67 7.64,16.74 4.72,4.1 11.02,5.84 16.74,5.11 5.75,-0.7 10.79,-3.64 14.17,-7.68 3.43,-4.03 5.15,-9.1 5.18,-14.17 -0.03,-5.06 -1.71,-10.15 -5.16,-14.18 -3.37,-4.05 -8.42,-6.99 -14.18,-7.69 -5.73,-0.73 -12.03,1.03 -16.74,5.13 -4.72,4.07 -7.7,10.32 -7.65,16.74 z"
               id="path538" />
          </g>
        </g>
        <g
           id="g552">
          <g
             id="g546">
            <circle
               class="st4"
               cx="286.92999"
               cy="319.37"
               r="24.379999"
               id="circle544" />
          </g>
          <g
             id="g550">
            <path
               class="st0"
               d="m 262.55,319.37 c 0.01,-6.37 2.28,-12.79 6.65,-17.73 4.29,-4.97 10.67,-8.46 17.73,-9.15 7.03,-0.74 14.66,1.57 20.29,6.59 5.63,4.98 9.19,12.57 9.12,20.29 0.07,7.72 -3.46,15.33 -9.1,20.31 -5.63,5.04 -13.28,7.34 -20.31,6.6 -7.06,-0.69 -13.45,-4.19 -17.74,-9.17 -4.37,-4.95 -6.63,-11.38 -6.64,-17.74 z m 0,0 c -0.05,6.42 2.94,12.67 7.64,16.74 4.72,4.1 11.02,5.84 16.74,5.11 5.75,-0.7 10.79,-3.64 14.17,-7.68 3.43,-4.03 5.15,-9.1 5.18,-14.17 -0.03,-5.06 -1.71,-10.15 -5.16,-14.18 -3.37,-4.05 -8.42,-6.99 -14.18,-7.69 -5.73,-0.73 -12.03,1.03 -16.74,5.13 -4.72,4.06 -7.7,10.32 -7.65,16.74 z"
               id="path548" />
          </g>
        </g>
        <g
           id="g562">
          <g
             id="g556">
            <circle
               class="st4"
               cx="320.17001"
               cy="341.53"
               r="24.379999"
               id="circle554" />
          </g>
          <g
             id="g560">
            <path
               class="st0"
               d="m 295.79,341.53 c 0.01,-6.37 2.28,-12.79 6.65,-17.73 4.29,-4.97 10.67,-8.46 17.73,-9.15 7.03,-0.74 14.66,1.57 20.29,6.59 5.63,4.98 9.19,12.57 9.12,20.29 0.07,7.72 -3.46,15.33 -9.1,20.31 -5.63,5.04 -13.28,7.34 -20.31,6.6 -7.06,-0.69 -13.45,-4.19 -17.74,-9.17 -4.37,-4.95 -6.63,-11.38 -6.64,-17.74 z m 0,0 c -0.05,6.42 2.94,12.67 7.64,16.74 4.72,4.1 11.02,5.84 16.74,5.11 5.75,-0.7 10.79,-3.64 14.17,-7.68 3.43,-4.03 5.15,-9.1 5.18,-14.17 -0.03,-5.06 -1.71,-10.15 -5.16,-14.18 -3.37,-4.05 -8.42,-6.99 -14.18,-7.69 -5.73,-0.73 -12.03,1.03 -16.74,5.13 -4.72,4.06 -7.7,10.32 -7.65,16.74 z"
               id="path558" />
          </g>
        </g>
        <g
           id="g572">
          <g
             id="g566">
            <circle
               class="st4"
               cx="307.5"
               cy="376.51999"
               r="24.379999"
               id="circle564" />
          </g>
          <g
             id="g570">
            <path
               class="st0"
               d="m 283.12,376.52 c 0.01,-6.37 2.28,-12.79 6.65,-17.73 4.29,-4.97 10.67,-8.46 17.73,-9.15 7.03,-0.74 14.66,1.57 20.29,6.59 5.63,4.98 9.19,12.57 9.12,20.29 0.07,7.72 -3.46,15.33 -9.1,20.31 -5.63,5.04 -13.28,7.34 -20.31,6.6 -7.06,-0.69 -13.45,-4.19 -17.74,-9.17 -4.37,-4.95 -6.63,-11.38 -6.64,-17.74 z m 0,0 c -0.05,6.42 2.94,12.67 7.64,16.74 4.72,4.1 11.02,5.84 16.74,5.11 5.75,-0.7 10.79,-3.64 14.17,-7.68 3.43,-4.03 5.15,-9.1 5.18,-14.17 -0.03,-5.06 -1.72,-10.15 -5.16,-14.18 -3.37,-4.05 -8.42,-6.99 -14.18,-7.69 -5.73,-0.73 -12.03,1.03 -16.74,5.13 -4.72,4.06 -7.7,10.32 -7.65,16.74 z"
               id="path568" />
          </g>
        </g>
        <g
           id="g582">
          <g
             id="g576">
            <circle
               class="st5"
               cx="286.92999"
               cy="350.39001"
               r="31.02"
               id="circle574" />
          </g>
          <g
             id="g580">
            <path
               class="st0"
               d="m 255.9,350.39 c -0.11,-8.13 3.04,-16.25 8.59,-22.43 5.52,-6.21 13.63,-10.42 22.43,-11.1 8.77,-0.75 18.13,2.28 24.99,8.54 3.38,3.15 6.24,6.96 8.14,11.27 1.86,4.31 2.85,9.02 2.92,13.73 -0.03,9.44 -4.12,18.81 -11.05,25.01 -6.86,6.28 -16.23,9.29 -25.01,8.55 -8.81,-0.68 -16.92,-4.9 -22.44,-11.12 -5.53,-6.19 -8.67,-14.31 -8.57,-22.45 z m 0,0 c 0.05,8.14 3.59,16.16 9.59,21.44 5.95,5.33 13.97,7.8 21.44,7.06 7.5,-0.69 14.26,-4.35 18.87,-9.63 4.62,-5.27 7.21,-12.04 7.13,-18.87 0.09,-6.83 -2.48,-13.62 -7.11,-18.88 -4.6,-5.29 -11.38,-8.95 -18.88,-9.64 -7.47,-0.73 -15.5,1.74 -21.44,7.08 -6.01,5.29 -9.55,13.31 -9.6,21.44 z"
               id="path578" />
          </g>
        </g>
      </g>
      <g
         id="g588">
        <path
           class="st0"
           d="m 151.27,176.9 c -2.21,0 -4.24,-1.46 -4.85,-3.7 -1.74,-6.28 -1.62,-12.74 0.32,-18.17 2.13,-5.97 6.38,-10.23 11.65,-11.68 5.27,-1.46 11.1,0.02 15.99,4.06 4.45,3.67 7.86,9.15 9.6,15.44 0.74,2.68 -0.83,5.45 -3.51,6.19 -2.71,0.73 -5.45,-0.84 -6.19,-3.51 -1.17,-4.24 -3.47,-8.02 -6.29,-10.35 -1.37,-1.13 -4.08,-2.89 -6.91,-2.12 -2.82,0.78 -4.24,3.69 -4.84,5.36 -1.23,3.45 -1.27,7.87 -0.1,12.11 0.74,2.68 -0.83,5.45 -3.51,6.19 -0.46,0.12 -0.91,0.18 -1.36,0.18 z"
           id="path586" />
      </g>
      <g
         id="g592">
        <ellipse
           transform="matrix(0.964,-0.266,0.266,0.964,-39.0415,50.0925)"
           class="st0"
           cx="165.37"
           cy="169.14999"
           rx="6.1399999"
           ry="10.47"
           id="ellipse590" />
      </g>
      <g
         class="st6"
         id="g598">
        <g
           id="g596">
          <path
             class="st0"
             d="m 440.52,414.51 c 3.5,7.69 6.92,15.01 10.94,21.9 3.9,6.91 8.12,13.42 12.78,19.31 4.7,5.85 9.76,11.15 15.4,15.42 5.56,4.39 11.72,7.66 18.21,10.17 l 0.38,0.15 c 5.14,1.98 7.69,7.75 5.71,12.89 -1.13,2.92 -3.52,5.02 -6.29,5.91 -10.24,3.25 -20.12,5.74 -30.31,7.91 -10.12,2.19 -20.32,3.92 -30.57,5.26 -20.51,2.57 -41.24,3.67 -61.94,1.96 9.89,-3.27 19.78,-5.85 29.57,-8.76 l 29.29,-8.3 29.06,-8.34 c 9.58,-2.84 19.38,-5.73 28.54,-8.74 l -0.2,18.94 c -8.81,-3.13 -17.08,-8.02 -23.93,-14.26 -6.88,-6.22 -12.4,-13.6 -16.54,-21.45 -4.16,-7.85 -7.06,-16.14 -8.75,-24.56 -1.54,-8.44 -2.46,-16.95 -1.35,-25.41 z"
             id="path594" />
        </g>
      </g>
      <g
         class="st7"
         id="g604">
        <g
           id="g602">
          <path
             class="st0"
             d="m 175.03,91.25 c -20.74,9.57 -38.5,22.1 -52.85,37.08 -14.26,14.9 -24.55,32.59 -26.85,51.01 -1.21,9.27 -0.52,18.63 2.17,27.4 2.68,8.82 7.54,17.12 13.95,24.69 12.99,15.17 31.68,26.69 52.85,35.2 -22.88,1.85 -47.29,-5.04 -66.65,-20.97 -9.64,-7.95 -17.74,-18.56 -22.64,-30.82 -4.9,-12.29 -6.29,-25.82 -4.64,-38.71 1.72,-13.01 6.59,-25.34 13.49,-35.87 6.89,-10.57 15.64,-19.5 25.33,-26.74 19.38,-14.32 42.74,-22.89 65.84,-22.27 z"
             id="path600" />
        </g>
      </g>
    </g>
    <text
       xml:space="preserve"
       style="font-style:normal;font-variant:normal;font-weight:normal;font-stretch:normal;font-size:2.46058px;line-height:1.25;font-family:Carlito;-inkscape-font-specification:Carlito;opacity:0.27;fill:#000000;fill-opacity:1;stroke:none;stroke-width:0.0829392;"
       x="13.787577"
       y="27.52001"
       id="text695"><tspan
         sodipodi:role="line"
         id="tspan693"
         x="13.787577"
         y="27.52001"
         style="font-style:normal;font-variant:normal;font-weight:normal;font-stretch:normal;font-size:2.46058px;font-family:Roboto;-inkscape-font-specification:Roboto;stroke-width:0.0829392;">Gardenzilla Ltd.</tspan></text>
    <path
       id="text133"
       style="font-style:normal;font-variant:normal;font-weight:normal;font-stretch:normal;font-size:3.88056px;line-height:1.25;font-family:Carlito;-inkscape-font-specification:Carlito;opacity:0.27;fill:#000000;fill-opacity:1;stroke:none;stroke-width:0.0829392"
       d="m 18.485391,27.981611 v 1.014898 h 0.07901 v -0.491783 c 0.01542,-0.04317 0.04104,-0.08211 0.07629,-0.116475 0.03568,-0.0348 0.08072,-0.05177 0.136228,-0.05177 0.05198,0 0.09333,0.0138 0.123286,0.04155 0.0304,0.02775 0.04564,0.07857 0.04564,0.152575 v 0.4659 h 0.07901 v -0.4659 c 0,-0.09427 -0.02009,-0.161528 -0.06062,-0.201617 -0.04053,-0.04053 -0.09663,-0.06062 -0.16756,-0.06062 -0.0511,0 -0.0959,0.01187 -0.135547,0.0361 -0.03965,0.02423 -0.07205,0.05663 -0.09672,0.09672 v -0.419582 z m 2.530434,0.03882 c -0.09207,0 -0.164179,0.03317 -0.216602,0.100128 -0.05242,0.06696 -0.07833,0.170991 -0.07833,0.311961 v 0.162112 c 0,0.141411 0.02615,0.246163 0.07901,0.314005 0.05286,0.0674 0.125211,0.100809 0.217283,0.100809 0.09295,0 0.16506,-0.03341 0.216603,-0.100809 0.05198,-0.06784 0.07833,-0.172594 0.07833,-0.314005 V 28.43252 c 0,-0.14097 -0.02659,-0.245 -0.07901,-0.311961 -0.05198,-0.06696 -0.124332,-0.100128 -0.217284,-0.100128 z m -6.713993,6.98e-4 c -0.112336,0 -0.201848,0.03946 -0.268369,0.119199 -0.06608,0.07972 -0.09945,0.184712 -0.09945,0.31467 v 0.120562 c 0,0.129957 0.03313,0.234949 0.09877,0.314686 0.06608,0.07974 0.153908,0.1192 0.263601,0.1192 0.105728,0 0.188704,-0.02759 0.248616,-0.0831 0.05991,-0.05551 0.09476,-0.132427 0.104896,-0.230225 h -0.08106 c -0.01013,0.08106 -0.0372,0.142256 -0.08038,0.183226 -0.04317,0.04097 -0.107058,0.0613 -0.192082,0.0613 -0.08943,0 -0.158848,-0.03413 -0.207747,-0.102852 -0.0489,-0.06872 -0.07288,-0.156071 -0.07288,-0.262239 v -0.121924 c 0,-0.108812 0.02494,-0.196399 0.07561,-0.26292 0.0511,-0.06696 0.121484,-0.100127 0.210472,-0.100127 0.08282,0 0.145263,0.02129 0.187995,0.06403 0.04273,0.04273 0.06932,0.102969 0.07901,0.180502 h 0.08106 c -0.01013,-0.09868 -0.04498,-0.175839 -0.104896,-0.230906 -0.05947,-0.05551 -0.140522,-0.0831 -0.243167,-0.0831 z m 3.177516,0 c -0.03612,0 -0.05449,0.01744 -0.05449,0.05313 0,0.0348 0.01837,0.05245 0.05449,0.05245 0.03656,0 0.05517,-0.01765 0.05517,-0.05245 0,-0.03568 -0.01861,-0.05313 -0.05517,-0.05313 z m 2.777006,0 c -0.09251,0 -0.165541,0.02856 -0.217964,0.08582 -0.05242,0.05683 -0.07833,0.125286 -0.07833,0.205023 h 0.07901 c 0,-0.06476 0.01981,-0.118217 0.05858,-0.160068 0.03877,-0.04229 0.09174,-0.06335 0.158705,-0.06335 0.0652,0 0.114808,0.01817 0.14917,0.05517 0.03436,0.03656 0.05108,0.08421 0.05108,0.142358 0,0.04009 -0.01187,0.08196 -0.0361,0.12601 -0.02379,0.04361 -0.06494,0.09924 -0.123967,0.166199 l -0.315368,0.356917 v 0.0613 h 0.603489 v -0.06743 h -0.506082 l 0.268369,-0.302411 c 0.0489,-0.05551 0.09245,-0.113297 0.130779,-0.172329 0.03877,-0.05903 0.05858,-0.117583 0.05858,-0.175734 0,-0.08062 -0.02538,-0.1433 -0.07561,-0.188675 -0.04978,-0.04582 -0.117557,-0.0688 -0.204341,-0.0688 z m 1.501232,0 c -0.09251,0 -0.16486,0.02856 -0.217284,0.08582 -0.05242,0.05683 -0.07901,0.125286 -0.07901,0.205023 h 0.07901 c 0,-0.06476 0.01981,-0.118217 0.05858,-0.160068 0.03877,-0.04229 0.09174,-0.06335 0.158706,-0.06335 0.0652,0 0.114808,0.01817 0.149169,0.05517 0.03436,0.03656 0.05177,0.08421 0.05177,0.142358 0,0.04009 -0.01255,0.08196 -0.03678,0.12601 -0.02379,0.04361 -0.06494,0.09924 -0.123968,0.166199 l -0.315368,0.356917 v 0.0613 h 0.60349 v -0.06743 h -0.506093 l 0.26905,-0.302411 c 0.0489,-0.05551 0.09245,-0.113297 0.130779,-0.172329 0.03877,-0.05903 0.0579,-0.117583 0.0579,-0.175734 0,-0.08062 -0.02538,-0.1433 -0.07561,-0.188675 -0.04978,-0.04582 -0.117557,-0.0688 -0.204341,-0.0688 z m 0.830309,0.0089 -0.326947,0.122606 v 0.07424 l 0.260876,-0.0974 v 0.86709 h 0.07969 v -0.966537 z m -1.57207,0.0579 c 0.144935,0 0.217284,0.11177 0.217284,0.335121 v 0.181183 c 0,0.107931 -0.01745,0.190947 -0.05313,0.249978 -0.03568,0.05859 -0.0901,0.08787 -0.162793,0.08787 -0.07181,0 -0.126228,-0.02928 -0.162792,-0.08787 -0.03656,-0.05903 -0.05449,-0.142047 -0.05449,-0.249978 V 28.42305 c 0,-0.223351 0.07187,-0.335121 0.215921,-0.335121 z m -1.743717,0.0095 v 0.183898 h -0.130779 v 0.06471 h 0.130779 v 0.476116 c 0,0.07181 0.01452,0.120935 0.04359,0.147808 0.02907,0.02643 0.06657,0.03951 0.112388,0.03951 0.03612,0 0.0642,-0.0032 0.08446,-0.01022 l -0.0034,-0.06607 c -0.0093,0.0018 -0.01896,0.003 -0.02997,0.0048 -0.01057,0.0013 -0.0224,0.0021 -0.03474,0.0021 -0.02423,0 -0.04577,-0.007 -0.06471,-0.02112 -0.0185,-0.01454 -0.02793,-0.0465 -0.02793,-0.09672 v -0.476194 h 0.147807 v -0.06474 H 19.351801 V 28.0974 Z m -4.167893,0.170951 c -0.09604,0 -0.172756,0.03389 -0.230907,0.102171 -0.05815,0.06784 -0.08719,0.153504 -0.08719,0.25747 v 0.02112 c 0,0.104406 0.02903,0.190991 0.08719,0.258833 0.05815,0.06784 0.135352,0.10149 0.232269,0.10149 0.09648,0 0.173877,-0.03365 0.231587,-0.10149 0.05815,-0.06784 0.08719,-0.154427 0.08719,-0.258833 v -0.02112 c 0,-0.103966 -0.02904,-0.189628 -0.08719,-0.25747 -0.05771,-0.06828 -0.135591,-0.102171 -0.232949,-0.102171 z m 0.784673,0 c -0.05066,0 -0.0947,0.0097 -0.132142,0.02997 -0.03701,0.01982 -0.06772,0.04834 -0.09195,0.08446 l -0.0041,-0.101491 h -0.07356 v 0.989696 h 0.07901 v -0.365098 c 0.02423,0.03216 0.05495,0.0571 0.09195,0.07561 0.03745,0.0185 0.08148,0.02793 0.132141,0.02793 0.08634,0 0.153359,-0.03365 0.200937,-0.101489 0.04802,-0.06784 0.07152,-0.154949 0.07152,-0.261558 V 28.6321 c 0,-0.111015 -0.0235,-0.199324 -0.07152,-0.264964 -0.04758,-0.06608 -0.115073,-0.09877 -0.202299,-0.09877 z m 1.365003,0 c -0.04802,0 -0.08844,0.01091 -0.121924,0.03337 -0.03304,0.02247 -0.05963,0.05295 -0.07901,0.09127 l -0.0021,-0.111707 h -0.07697 v 0.715197 h 0.07901 v -0.493145 c 0.01322,-0.04714 0.0362,-0.0856 0.0688,-0.115113 0.03304,-0.02996 0.07611,-0.04495 0.129417,-0.04495 0.0097,0 0.01887,4.88e-4 0.02725,0.0014 0.0084,8.72e-4 0.01707,0.0021 0.02588,0.0034 l 0.0027,-0.0722 c -0.0141,-0.0053 -0.03198,-0.0075 -0.05313,-0.0075 z m 0.724051,0 c -0.0859,0 -0.152717,0.03268 -0.201617,0.09877 -0.0489,0.06564 -0.07356,0.153949 -0.07356,0.264963 v 0.01431 c 0,0.106609 0.02466,0.193715 0.07356,0.261557 0.0489,0.06784 0.115913,0.10149 0.200936,0.10149 0.05066,0 0.09421,-0.0097 0.130779,-0.02861 0.03701,-0.01894 0.0668,-0.04461 0.09059,-0.07765 v 0.0831 c 0,0.07181 -0.01817,0.128152 -0.05517,0.168241 -0.03701,0.04009 -0.08926,0.05994 -0.156662,0.05994 -0.07841,0 -0.145188,-0.03413 -0.200255,-0.102852 l -0.04427,0.04768 c 0.02864,0.04053 0.06613,0.07101 0.112388,0.09127 0.0467,0.02071 0.09241,0.03133 0.136909,0.03133 0.08678,0 0.155765,-0.02683 0.207748,-0.07969 0.05242,-0.05287 0.07901,-0.125694 0.07901,-0.218646 v -0.70227 h -0.07424 l -0.0034,0.102171 c -0.02379,-0.03612 -0.05359,-0.0642 -0.09059,-0.08446 -0.03656,-0.0207 -0.08104,-0.03065 -0.132141,-0.03065 z m -1.728732,0.01294 0.26905,0.709066 -0.03474,0.09536 c -0.01498,0.04273 -0.03363,0.07445 -0.05653,0.09604 -0.02291,0.02203 -0.05627,0.03338 -0.09945,0.03338 -0.0035,0 -0.0098,-4.88e-4 -0.01907,-0.0014 -0.0093,-8.72e-4 -0.01627,-0.0021 -0.02112,-0.0034 v 0.06607 c 0.01718,0.0057 0.03727,0.0089 0.06062,0.0089 0.04361,0 0.07846,-0.01038 0.104896,-0.03065 0.02643,-0.01982 0.04745,-0.04353 0.06198,-0.07084 0.01454,-0.02687 0.02544,-0.05062 0.03337,-0.0722 l 0.302426,-0.830344 h -0.08514 l -0.207748,0.601446 -0.222732,-0.601446 z m 1.190632,0 v 0.715196 h 0.07833 V 28.28132 Z m -2.335627,0.05449 c 0.07753,0 0.137048,0.02952 0.178458,0.08855 0.04141,0.05903 0.06198,0.126568 0.06198,0.203661 v 0.02112 c 0,0.07886 -0.02057,0.147554 -0.06198,0.205704 -0.04097,0.05815 -0.100003,0.08719 -0.177096,0.08719 -0.07797,0 -0.13773,-0.02904 -0.17914,-0.08719 -0.04097,-0.05815 -0.0613,-0.12685 -0.0613,-0.205705 v -0.02112 c 0,-0.07709 0.02033,-0.144629 0.0613,-0.20366 0.04141,-0.05903 0.100684,-0.08855 0.177778,-0.08855 z m 0.766963,0.0014 c 0.07269,0 0.125706,0.02831 0.160068,0.08514 0.0348,0.05683 0.05245,0.12653 0.05245,0.209791 v 0.01431 c 0,0.08326 -0.01765,0.153202 -0.05245,0.210472 -0.03436,0.05683 -0.0869,0.08514 -0.158706,0.08514 -0.05331,0 -0.0973,-0.01139 -0.130779,-0.03474 -0.03348,-0.02379 -0.05843,-0.05355 -0.07561,-0.08923 v -0.345338 c 0.01542,-0.03568 0.03936,-0.06668 0.07152,-0.094 0.03216,-0.02775 0.07667,-0.04155 0.133504,-0.04155 z m 2.122431,0 c 0.05815,0 0.103147,0.01452 0.134865,0.04359 0.03216,0.02864 0.05518,0.06084 0.07016,0.0974 v 0.330352 c -0.01718,0.03789 -0.04213,0.06957 -0.07561,0.09468 -0.03304,0.02511 -0.07659,0.03746 -0.130778,0.03746 -0.07181,0 -0.125026,-0.02807 -0.159387,-0.08446 -0.03392,-0.05683 -0.05109,-0.12653 -0.05109,-0.209791 v -0.01431 c 0,-0.08326 0.01716,-0.152962 0.05109,-0.209791 0.03436,-0.05683 0.08806,-0.08514 0.160749,-0.08514 z" />
  </g>
  <style
     type="text/css"
     id="style452">
	.st0{fill:#295135;}
	.st1{fill:#93D500;}
	.st2{fill:#CFDDBB;}
	.st3{fill:#FFFFFF;}
	.st4{fill:#FB5373;}
	.st5{fill:#F7BE00;}
	.st6{opacity:0.2;}
	.st7{opacity:0.1;}
</style>
  <script
     id="mesh_polyfill"
     type="text/javascript">
!function(){const t=&quot;http://www.w3.org/2000/svg&quot;,e=&quot;http://www.w3.org/1999/xlink&quot;,s=&quot;http://www.w3.org/1999/xhtml&quot;,r=2;if(document.createElementNS(t,&quot;meshgradient&quot;).x)return;const n=(t,e,s,r)=&gt;{let n=new x(.5*(e.x+s.x),.5*(e.y+s.y)),o=new x(.5*(t.x+e.x),.5*(t.y+e.y)),i=new x(.5*(s.x+r.x),.5*(s.y+r.y)),a=new x(.5*(n.x+o.x),.5*(n.y+o.y)),h=new x(.5*(n.x+i.x),.5*(n.y+i.y)),l=new x(.5*(a.x+h.x),.5*(a.y+h.y));return[[t,o,a,l],[l,h,i,r]]},o=t=&gt;{let e=t[0].distSquared(t[1]),s=t[2].distSquared(t[3]),r=.25*t[0].distSquared(t[2]),n=.25*t[1].distSquared(t[3]),o=e&gt;s?e:s,i=r&gt;n?r:n;return 18*(o&gt;i?o:i)},i=(t,e)=&gt;Math.sqrt(t.distSquared(e)),a=(t,e)=&gt;t.scale(2/3).add(e.scale(1/3)),h=t=&gt;{let e,s,r,n,o,i,a,h=new g;return t.match(/(\w+\(\s*[^)]+\))+/g).forEach(t=&gt;{let l=t.match(/[\w.-]+/g),d=l.shift();switch(d){case&quot;translate&quot;:2===l.length?e=new g(1,0,0,1,l[0],l[1]):(console.error(&quot;mesh.js: translate does not have 2 arguments!&quot;),e=new g(1,0,0,1,0,0)),h=h.append(e);break;case&quot;scale&quot;:1===l.length?s=new g(l[0],0,0,l[0],0,0):2===l.length?s=new g(l[0],0,0,l[1],0,0):(console.error(&quot;mesh.js: scale does not have 1 or 2 arguments!&quot;),s=new g(1,0,0,1,0,0)),h=h.append(s);break;case&quot;rotate&quot;:if(3===l.length&amp;&amp;(e=new g(1,0,0,1,l[1],l[2]),h=h.append(e)),l[0]){r=l[0]*Math.PI/180;let t=Math.cos(r),e=Math.sin(r);Math.abs(t)&lt;1e-16&amp;&amp;(t=0),Math.abs(e)&lt;1e-16&amp;&amp;(e=0),a=new g(t,e,-e,t,0,0),h=h.append(a)}else console.error(&quot;math.js: No argument to rotate transform!&quot;);3===l.length&amp;&amp;(e=new g(1,0,0,1,-l[1],-l[2]),h=h.append(e));break;case&quot;skewX&quot;:l[0]?(r=l[0]*Math.PI/180,n=Math.tan(r),o=new g(1,0,n,1,0,0),h=h.append(o)):console.error(&quot;math.js: No argument to skewX transform!&quot;);break;case&quot;skewY&quot;:l[0]?(r=l[0]*Math.PI/180,n=Math.tan(r),i=new g(1,n,0,1,0,0),h=h.append(i)):console.error(&quot;math.js: No argument to skewY transform!&quot;);break;case&quot;matrix&quot;:6===l.length?h=h.append(new g(...l)):console.error(&quot;math.js: Incorrect number of arguments for matrix!&quot;);break;default:console.error(&quot;mesh.js: Unhandled transform type: &quot;+d)}}),h},l=t=&gt;{let e=[],s=t.split(/[ ,]+/);for(let t=0,r=s.length-1;t&lt;r;t+=2)e.push(new x(parseFloat(s[t]),parseFloat(s[t+1])));return e},d=(t,e)=&gt;{for(let s in e)t.setAttribute(s,e[s])},c=(t,e,s,r,n)=&gt;{let o,i,a=[0,0,0,0];for(let h=0;h&lt;3;++h)e[h]&lt;t[h]&amp;&amp;e[h]&lt;s[h]||t[h]&lt;e[h]&amp;&amp;s[h]&lt;e[h]?a[h]=0:(a[h]=.5*((e[h]-t[h])/r+(s[h]-e[h])/n),o=Math.abs(3*(e[h]-t[h])/r),i=Math.abs(3*(s[h]-e[h])/n),a[h]&gt;o?a[h]=o:a[h]&gt;i&amp;&amp;(a[h]=i));return a},u=[[1,0,0,0,0,0,0,0,0,0,0,0,0,0,0,0],[0,0,0,0,1,0,0,0,0,0,0,0,0,0,0,0],[-3,3,0,0,-2,-1,0,0,0,0,0,0,0,0,0,0],[2,-2,0,0,1,1,0,0,0,0,0,0,0,0,0,0],[0,0,0,0,0,0,0,0,1,0,0,0,0,0,0,0],[0,0,0,0,0,0,0,0,0,0,0,0,1,0,0,0],[0,0,0,0,0,0,0,0,-3,3,0,0,-2,-1,0,0],[0,0,0,0,0,0,0,0,2,-2,0,0,1,1,0,0],[-3,0,3,0,0,0,0,0,-2,0,-1,0,0,0,0,0],[0,0,0,0,-3,0,3,0,0,0,0,0,-2,0,-1,0],[9,-9,-9,9,6,3,-6,-3,6,-6,3,-3,4,2,2,1],[-6,6,6,-6,-3,-3,3,3,-4,4,-2,2,-2,-2,-1,-1],[2,0,-2,0,0,0,0,0,1,0,1,0,0,0,0,0],[0,0,0,0,2,0,-2,0,0,0,0,0,1,0,1,0],[-6,6,6,-6,-4,-2,4,2,-3,3,-3,3,-2,-1,-2,-1],[4,-4,-4,4,2,2,-2,-2,2,-2,2,-2,1,1,1,1]],f=t=&gt;{let e=[];for(let s=0;s&lt;16;++s){e[s]=0;for(let r=0;r&lt;16;++r)e[s]+=u[s][r]*t[r]}return e},p=(t,e,s)=&gt;{const r=e*e,n=s*s,o=e*e*e,i=s*s*s;return t[0]+t[1]*e+t[2]*r+t[3]*o+t[4]*s+t[5]*s*e+t[6]*s*r+t[7]*s*o+t[8]*n+t[9]*n*e+t[10]*n*r+t[11]*n*o+t[12]*i+t[13]*i*e+t[14]*i*r+t[15]*i*o},y=t=&gt;{let e=[],s=[],r=[];for(let s=0;s&lt;4;++s)e[s]=[],e[s][0]=n(t[0][s],t[1][s],t[2][s],t[3][s]),e[s][1]=[],e[s][1].push(...n(...e[s][0][0])),e[s][1].push(...n(...e[s][0][1])),e[s][2]=[],e[s][2].push(...n(...e[s][1][0])),e[s][2].push(...n(...e[s][1][1])),e[s][2].push(...n(...e[s][1][2])),e[s][2].push(...n(...e[s][1][3]));for(let t=0;t&lt;8;++t){s[t]=[];for(let r=0;r&lt;4;++r)s[t][r]=[],s[t][r][0]=n(e[0][2][t][r],e[1][2][t][r],e[2][2][t][r],e[3][2][t][r]),s[t][r][1]=[],s[t][r][1].push(...n(...s[t][r][0][0])),s[t][r][1].push(...n(...s[t][r][0][1])),s[t][r][2]=[],s[t][r][2].push(...n(...s[t][r][1][0])),s[t][r][2].push(...n(...s[t][r][1][1])),s[t][r][2].push(...n(...s[t][r][1][2])),s[t][r][2].push(...n(...s[t][r][1][3]))}for(let t=0;t&lt;8;++t){r[t]=[];for(let e=0;e&lt;8;++e)r[t][e]=[],r[t][e][0]=s[t][0][2][e],r[t][e][1]=s[t][1][2][e],r[t][e][2]=s[t][2][2][e],r[t][e][3]=s[t][3][2][e]}return r};class x{constructor(t,e){this.x=t||0,this.y=e||0}toString(){return`(x=${this.x}, y=${this.y})`}clone(){return new x(this.x,this.y)}add(t){return new x(this.x+t.x,this.y+t.y)}scale(t){return void 0===t.x?new x(this.x*t,this.y*t):new x(this.x*t.x,this.y*t.y)}distSquared(t){let e=this.x-t.x,s=this.y-t.y;return e*e+s*s}transform(t){let e=this.x*t.a+this.y*t.c+t.e,s=this.x*t.b+this.y*t.d+t.f;return new x(e,s)}}class g{constructor(t,e,s,r,n,o){void 0===t?(this.a=1,this.b=0,this.c=0,this.d=1,this.e=0,this.f=0):(this.a=t,this.b=e,this.c=s,this.d=r,this.e=n,this.f=o)}toString(){return`affine: ${this.a} ${this.c} ${this.e} \n       ${this.b} ${this.d} ${this.f}`}append(t){t instanceof g||console.error(&quot;mesh.js: argument to Affine.append is not affine!&quot;);let e=this.a*t.a+this.c*t.b,s=this.b*t.a+this.d*t.b,r=this.a*t.c+this.c*t.d,n=this.b*t.c+this.d*t.d,o=this.a*t.e+this.c*t.f+this.e,i=this.b*t.e+this.d*t.f+this.f;return new g(e,s,r,n,o,i)}}class w{constructor(t,e){this.nodes=t,this.colors=e}paintCurve(t,e){if(o(this.nodes)&gt;r){const s=n(...this.nodes);let r=[[],[]],o=[[],[]];for(let t=0;t&lt;4;++t)r[0][t]=this.colors[0][t],r[1][t]=(this.colors[0][t]+this.colors[1][t])/2,o[0][t]=r[1][t],o[1][t]=this.colors[1][t];let i=new w(s[0],r),a=new w(s[1],o);i.paintCurve(t,e),a.paintCurve(t,e)}else{let s=Math.round(this.nodes[0].x);if(s&gt;=0&amp;&amp;s&lt;e){let r=4*(~~this.nodes[0].y*e+s);t[r]=Math.round(this.colors[0][0]),t[r+1]=Math.round(this.colors[0][1]),t[r+2]=Math.round(this.colors[0][2]),t[r+3]=Math.round(this.colors[0][3])}}}}class m{constructor(t,e){this.nodes=t,this.colors=e}split(){let t=[[],[],[],[]],e=[[],[],[],[]],s=[[[],[]],[[],[]]],r=[[[],[]],[[],[]]];for(let s=0;s&lt;4;++s){const r=n(this.nodes[0][s],this.nodes[1][s],this.nodes[2][s],this.nodes[3][s]);t[0][s]=r[0][0],t[1][s]=r[0][1],t[2][s]=r[0][2],t[3][s]=r[0][3],e[0][s]=r[1][0],e[1][s]=r[1][1],e[2][s]=r[1][2],e[3][s]=r[1][3]}for(let t=0;t&lt;4;++t)s[0][0][t]=this.colors[0][0][t],s[0][1][t]=this.colors[0][1][t],s[1][0][t]=(this.colors[0][0][t]+this.colors[1][0][t])/2,s[1][1][t]=(this.colors[0][1][t]+this.colors[1][1][t])/2,r[0][0][t]=s[1][0][t],r[0][1][t]=s[1][1][t],r[1][0][t]=this.colors[1][0][t],r[1][1][t]=this.colors[1][1][t];return[new m(t,s),new m(e,r)]}paint(t,e){let s,n=!1;for(let t=0;t&lt;4;++t)if((s=o([this.nodes[0][t],this.nodes[1][t],this.nodes[2][t],this.nodes[3][t]]))&gt;r){n=!0;break}if(n){let s=this.split();s[0].paint(t,e),s[1].paint(t,e)}else{new w([...this.nodes[0]],[...this.colors[0]]).paintCurve(t,e)}}}class b{constructor(t){this.readMesh(t),this.type=t.getAttribute(&quot;type&quot;)||&quot;bilinear&quot;}readMesh(t){let e=[[]],s=[[]],r=Number(t.getAttribute(&quot;x&quot;)),n=Number(t.getAttribute(&quot;y&quot;));e[0][0]=new x(r,n);let o=t.children;for(let t=0,r=o.length;t&lt;r;++t){e[3*t+1]=[],e[3*t+2]=[],e[3*t+3]=[],s[t+1]=[];let r=o[t].children;for(let n=0,o=r.length;n&lt;o;++n){let o=r[n].children;for(let r=0,i=o.length;r&lt;i;++r){let i=r;0!==t&amp;&amp;++i;let h,d=o[r].getAttribute(&quot;path&quot;),c=&quot;l&quot;;null!=d&amp;&amp;(c=(h=d.match(/\s*([lLcC])\s*(.*)/))[1]);let u=l(h[2]);switch(c){case&quot;l&quot;:0===i?(e[3*t][3*n+3]=u[0].add(e[3*t][3*n]),e[3*t][3*n+1]=a(e[3*t][3*n],e[3*t][3*n+3]),e[3*t][3*n+2]=a(e[3*t][3*n+3],e[3*t][3*n])):1===i?(e[3*t+3][3*n+3]=u[0].add(e[3*t][3*n+3]),e[3*t+1][3*n+3]=a(e[3*t][3*n+3],e[3*t+3][3*n+3]),e[3*t+2][3*n+3]=a(e[3*t+3][3*n+3],e[3*t][3*n+3])):2===i?(0===n&amp;&amp;(e[3*t+3][3*n+0]=u[0].add(e[3*t+3][3*n+3])),e[3*t+3][3*n+1]=a(e[3*t+3][3*n],e[3*t+3][3*n+3]),e[3*t+3][3*n+2]=a(e[3*t+3][3*n+3],e[3*t+3][3*n])):(e[3*t+1][3*n]=a(e[3*t][3*n],e[3*t+3][3*n]),e[3*t+2][3*n]=a(e[3*t+3][3*n],e[3*t][3*n]));break;case&quot;L&quot;:0===i?(e[3*t][3*n+3]=u[0],e[3*t][3*n+1]=a(e[3*t][3*n],e[3*t][3*n+3]),e[3*t][3*n+2]=a(e[3*t][3*n+3],e[3*t][3*n])):1===i?(e[3*t+3][3*n+3]=u[0],e[3*t+1][3*n+3]=a(e[3*t][3*n+3],e[3*t+3][3*n+3]),e[3*t+2][3*n+3]=a(e[3*t+3][3*n+3],e[3*t][3*n+3])):2===i?(0===n&amp;&amp;(e[3*t+3][3*n+0]=u[0]),e[3*t+3][3*n+1]=a(e[3*t+3][3*n],e[3*t+3][3*n+3]),e[3*t+3][3*n+2]=a(e[3*t+3][3*n+3],e[3*t+3][3*n])):(e[3*t+1][3*n]=a(e[3*t][3*n],e[3*t+3][3*n]),e[3*t+2][3*n]=a(e[3*t+3][3*n],e[3*t][3*n]));break;case&quot;c&quot;:0===i?(e[3*t][3*n+1]=u[0].add(e[3*t][3*n]),e[3*t][3*n+2]=u[1].add(e[3*t][3*n]),e[3*t][3*n+3]=u[2].add(e[3*t][3*n])):1===i?(e[3*t+1][3*n+3]=u[0].add(e[3*t][3*n+3]),e[3*t+2][3*n+3]=u[1].add(e[3*t][3*n+3]),e[3*t+3][3*n+3]=u[2].add(e[3*t][3*n+3])):2===i?(e[3*t+3][3*n+2]=u[0].add(e[3*t+3][3*n+3]),e[3*t+3][3*n+1]=u[1].add(e[3*t+3][3*n+3]),0===n&amp;&amp;(e[3*t+3][3*n+0]=u[2].add(e[3*t+3][3*n+3]))):(e[3*t+2][3*n]=u[0].add(e[3*t+3][3*n]),e[3*t+1][3*n]=u[1].add(e[3*t+3][3*n]));break;case&quot;C&quot;:0===i?(e[3*t][3*n+1]=u[0],e[3*t][3*n+2]=u[1],e[3*t][3*n+3]=u[2]):1===i?(e[3*t+1][3*n+3]=u[0],e[3*t+2][3*n+3]=u[1],e[3*t+3][3*n+3]=u[2]):2===i?(e[3*t+3][3*n+2]=u[0],e[3*t+3][3*n+1]=u[1],0===n&amp;&amp;(e[3*t+3][3*n+0]=u[2])):(e[3*t+2][3*n]=u[0],e[3*t+1][3*n]=u[1]);break;default:console.error(&quot;mesh.js: &quot;+c+&quot; invalid path type.&quot;)}if(0===t&amp;&amp;0===n||r&gt;0){let e=window.getComputedStyle(o[r]).stopColor.match(/^rgb\s*\(\s*(\d+)\s*,\s*(\d+)\s*,\s*(\d+)\s*\)$/i),a=window.getComputedStyle(o[r]).stopOpacity,h=255;a&amp;&amp;(h=Math.floor(255*a)),e&amp;&amp;(0===i?(s[t][n]=[],s[t][n][0]=Math.floor(e[1]),s[t][n][1]=Math.floor(e[2]),s[t][n][2]=Math.floor(e[3]),s[t][n][3]=h):1===i?(s[t][n+1]=[],s[t][n+1][0]=Math.floor(e[1]),s[t][n+1][1]=Math.floor(e[2]),s[t][n+1][2]=Math.floor(e[3]),s[t][n+1][3]=h):2===i?(s[t+1][n+1]=[],s[t+1][n+1][0]=Math.floor(e[1]),s[t+1][n+1][1]=Math.floor(e[2]),s[t+1][n+1][2]=Math.floor(e[3]),s[t+1][n+1][3]=h):3===i&amp;&amp;(s[t+1][n]=[],s[t+1][n][0]=Math.floor(e[1]),s[t+1][n][1]=Math.floor(e[2]),s[t+1][n][2]=Math.floor(e[3]),s[t+1][n][3]=h))}}e[3*t+1][3*n+1]=new x,e[3*t+1][3*n+2]=new x,e[3*t+2][3*n+1]=new x,e[3*t+2][3*n+2]=new x,e[3*t+1][3*n+1].x=(-4*e[3*t][3*n].x+6*(e[3*t][3*n+1].x+e[3*t+1][3*n].x)+-2*(e[3*t][3*n+3].x+e[3*t+3][3*n].x)+3*(e[3*t+3][3*n+1].x+e[3*t+1][3*n+3].x)+-1*e[3*t+3][3*n+3].x)/9,e[3*t+1][3*n+2].x=(-4*e[3*t][3*n+3].x+6*(e[3*t][3*n+2].x+e[3*t+1][3*n+3].x)+-2*(e[3*t][3*n].x+e[3*t+3][3*n+3].x)+3*(e[3*t+3][3*n+2].x+e[3*t+1][3*n].x)+-1*e[3*t+3][3*n].x)/9,e[3*t+2][3*n+1].x=(-4*e[3*t+3][3*n].x+6*(e[3*t+3][3*n+1].x+e[3*t+2][3*n].x)+-2*(e[3*t+3][3*n+3].x+e[3*t][3*n].x)+3*(e[3*t][3*n+1].x+e[3*t+2][3*n+3].x)+-1*e[3*t][3*n+3].x)/9,e[3*t+2][3*n+2].x=(-4*e[3*t+3][3*n+3].x+6*(e[3*t+3][3*n+2].x+e[3*t+2][3*n+3].x)+-2*(e[3*t+3][3*n].x+e[3*t][3*n+3].x)+3*(e[3*t][3*n+2].x+e[3*t+2][3*n].x)+-1*e[3*t][3*n].x)/9,e[3*t+1][3*n+1].y=(-4*e[3*t][3*n].y+6*(e[3*t][3*n+1].y+e[3*t+1][3*n].y)+-2*(e[3*t][3*n+3].y+e[3*t+3][3*n].y)+3*(e[3*t+3][3*n+1].y+e[3*t+1][3*n+3].y)+-1*e[3*t+3][3*n+3].y)/9,e[3*t+1][3*n+2].y=(-4*e[3*t][3*n+3].y+6*(e[3*t][3*n+2].y+e[3*t+1][3*n+3].y)+-2*(e[3*t][3*n].y+e[3*t+3][3*n+3].y)+3*(e[3*t+3][3*n+2].y+e[3*t+1][3*n].y)+-1*e[3*t+3][3*n].y)/9,e[3*t+2][3*n+1].y=(-4*e[3*t+3][3*n].y+6*(e[3*t+3][3*n+1].y+e[3*t+2][3*n].y)+-2*(e[3*t+3][3*n+3].y+e[3*t][3*n].y)+3*(e[3*t][3*n+1].y+e[3*t+2][3*n+3].y)+-1*e[3*t][3*n+3].y)/9,e[3*t+2][3*n+2].y=(-4*e[3*t+3][3*n+3].y+6*(e[3*t+3][3*n+2].y+e[3*t+2][3*n+3].y)+-2*(e[3*t+3][3*n].y+e[3*t][3*n+3].y)+3*(e[3*t][3*n+2].y+e[3*t+2][3*n].y)+-1*e[3*t][3*n].y)/9}}this.nodes=e,this.colors=s}paintMesh(t,e){let s=(this.nodes.length-1)/3,r=(this.nodes[0].length-1)/3;if(&quot;bilinear&quot;===this.type||s&lt;2||r&lt;2){let n;for(let o=0;o&lt;s;++o)for(let s=0;s&lt;r;++s){let r=[];for(let t=3*o,e=3*o+4;t&lt;e;++t)r.push(this.nodes[t].slice(3*s,3*s+4));let i=[];i.push(this.colors[o].slice(s,s+2)),i.push(this.colors[o+1].slice(s,s+2)),(n=new m(r,i)).paint(t,e)}}else{let n,o,a,h,l,d,u;const x=s,g=r;s++,r++;let w=new Array(s);for(let t=0;t&lt;s;++t){w[t]=new Array(r);for(let e=0;e&lt;r;++e)w[t][e]=[],w[t][e][0]=this.nodes[3*t][3*e],w[t][e][1]=this.colors[t][e]}for(let t=0;t&lt;s;++t)for(let e=0;e&lt;r;++e)0!==t&amp;&amp;t!==x&amp;&amp;(n=i(w[t-1][e][0],w[t][e][0]),o=i(w[t+1][e][0],w[t][e][0]),w[t][e][2]=c(w[t-1][e][1],w[t][e][1],w[t+1][e][1],n,o)),0!==e&amp;&amp;e!==g&amp;&amp;(n=i(w[t][e-1][0],w[t][e][0]),o=i(w[t][e+1][0],w[t][e][0]),w[t][e][3]=c(w[t][e-1][1],w[t][e][1],w[t][e+1][1],n,o));for(let t=0;t&lt;r;++t){w[0][t][2]=[],w[x][t][2]=[];for(let e=0;e&lt;4;++e)n=i(w[1][t][0],w[0][t][0]),o=i(w[x][t][0],w[x-1][t][0]),w[0][t][2][e]=n&gt;0?2*(w[1][t][1][e]-w[0][t][1][e])/n-w[1][t][2][e]:0,w[x][t][2][e]=o&gt;0?2*(w[x][t][1][e]-w[x-1][t][1][e])/o-w[x-1][t][2][e]:0}for(let t=0;t&lt;s;++t){w[t][0][3]=[],w[t][g][3]=[];for(let e=0;e&lt;4;++e)n=i(w[t][1][0],w[t][0][0]),o=i(w[t][g][0],w[t][g-1][0]),w[t][0][3][e]=n&gt;0?2*(w[t][1][1][e]-w[t][0][1][e])/n-w[t][1][3][e]:0,w[t][g][3][e]=o&gt;0?2*(w[t][g][1][e]-w[t][g-1][1][e])/o-w[t][g-1][3][e]:0}for(let s=0;s&lt;x;++s)for(let r=0;r&lt;g;++r){let n=i(w[s][r][0],w[s+1][r][0]),o=i(w[s][r+1][0],w[s+1][r+1][0]),c=i(w[s][r][0],w[s][r+1][0]),x=i(w[s+1][r][0],w[s+1][r+1][0]),g=[[],[],[],[]];for(let t=0;t&lt;4;++t){(d=[])[0]=w[s][r][1][t],d[1]=w[s+1][r][1][t],d[2]=w[s][r+1][1][t],d[3]=w[s+1][r+1][1][t],d[4]=w[s][r][2][t]*n,d[5]=w[s+1][r][2][t]*n,d[6]=w[s][r+1][2][t]*o,d[7]=w[s+1][r+1][2][t]*o,d[8]=w[s][r][3][t]*c,d[9]=w[s+1][r][3][t]*x,d[10]=w[s][r+1][3][t]*c,d[11]=w[s+1][r+1][3][t]*x,d[12]=0,d[13]=0,d[14]=0,d[15]=0,u=f(d);for(let e=0;e&lt;9;++e){g[t][e]=[];for(let s=0;s&lt;9;++s)g[t][e][s]=p(u,e/8,s/8),g[t][e][s]&gt;255?g[t][e][s]=255:g[t][e][s]&lt;0&amp;&amp;(g[t][e][s]=0)}}h=[];for(let t=3*s,e=3*s+4;t&lt;e;++t)h.push(this.nodes[t].slice(3*r,3*r+4));l=y(h);for(let s=0;s&lt;8;++s)for(let r=0;r&lt;8;++r)(a=new m(l[s][r],[[[g[0][s][r],g[1][s][r],g[2][s][r],g[3][s][r]],[g[0][s][r+1],g[1][s][r+1],g[2][s][r+1],g[3][s][r+1]]],[[g[0][s+1][r],g[1][s+1][r],g[2][s+1][r],g[3][s+1][r]],[g[0][s+1][r+1],g[1][s+1][r+1],g[2][s+1][r+1],g[3][s+1][r+1]]]])).paint(t,e)}}}transform(t){if(t instanceof x)for(let e=0,s=this.nodes.length;e&lt;s;++e)for(let s=0,r=this.nodes[0].length;s&lt;r;++s)this.nodes[e][s]=this.nodes[e][s].add(t);else if(t instanceof g)for(let e=0,s=this.nodes.length;e&lt;s;++e)for(let s=0,r=this.nodes[0].length;s&lt;r;++s)this.nodes[e][s]=this.nodes[e][s].transform(t)}scale(t){for(let e=0,s=this.nodes.length;e&lt;s;++e)for(let s=0,r=this.nodes[0].length;s&lt;r;++s)this.nodes[e][s]=this.nodes[e][s].scale(t)}}document.querySelectorAll(&quot;rect,circle,ellipse,path,text&quot;).forEach((r,n)=&gt;{let o=r.getAttribute(&quot;id&quot;);o||(o=&quot;patchjs_shape&quot;+n,r.setAttribute(&quot;id&quot;,o));const i=r.style.fill.match(/^url\(\s*&quot;?\s*#([^\s&quot;]+)&quot;?\s*\)/),a=r.style.stroke.match(/^url\(\s*&quot;?\s*#([^\s&quot;]+)&quot;?\s*\)/);if(i&amp;&amp;i[1]){const a=document.getElementById(i[1]);if(a&amp;&amp;&quot;meshgradient&quot;===a.nodeName){const i=r.getBBox();let l=document.createElementNS(s,&quot;canvas&quot;);d(l,{width:i.width,height:i.height});const c=l.getContext(&quot;2d&quot;);let u=c.createImageData(i.width,i.height);const f=new b(a);&quot;objectBoundingBox&quot;===a.getAttribute(&quot;gradientUnits&quot;)&amp;&amp;f.scale(new x(i.width,i.height));const p=a.getAttribute(&quot;gradientTransform&quot;);null!=p&amp;&amp;f.transform(h(p)),&quot;userSpaceOnUse&quot;===a.getAttribute(&quot;gradientUnits&quot;)&amp;&amp;f.transform(new x(-i.x,-i.y)),f.paintMesh(u.data,l.width),c.putImageData(u,0,0);const y=document.createElementNS(t,&quot;image&quot;);d(y,{width:i.width,height:i.height,x:i.x,y:i.y});let g=l.toDataURL();y.setAttributeNS(e,&quot;xlink:href&quot;,g),r.parentNode.insertBefore(y,r),r.style.fill=&quot;none&quot;;const w=document.createElementNS(t,&quot;use&quot;);w.setAttributeNS(e,&quot;xlink:href&quot;,&quot;#&quot;+o);const m=&quot;patchjs_clip&quot;+n,M=document.createElementNS(t,&quot;clipPath&quot;);M.setAttribute(&quot;id&quot;,m),M.appendChild(w),r.parentElement.insertBefore(M,r),y.setAttribute(&quot;clip-path&quot;,&quot;url(#&quot;+m+&quot;)&quot;),u=null,l=null,g=null}}if(a&amp;&amp;a[1]){const o=document.getElementById(a[1]);if(o&amp;&amp;&quot;meshgradient&quot;===o.nodeName){const i=parseFloat(r.style.strokeWidth.slice(0,-2))*(parseFloat(r.style.strokeMiterlimit)||parseFloat(r.getAttribute(&quot;stroke-miterlimit&quot;))||1),a=r.getBBox(),l=Math.trunc(a.width+i),c=Math.trunc(a.height+i),u=Math.trunc(a.x-i/2),f=Math.trunc(a.y-i/2);let p=document.createElementNS(s,&quot;canvas&quot;);d(p,{width:l,height:c});const y=p.getContext(&quot;2d&quot;);let g=y.createImageData(l,c);const w=new b(o);&quot;objectBoundingBox&quot;===o.getAttribute(&quot;gradientUnits&quot;)&amp;&amp;w.scale(new x(l,c));const m=o.getAttribute(&quot;gradientTransform&quot;);null!=m&amp;&amp;w.transform(h(m)),&quot;userSpaceOnUse&quot;===o.getAttribute(&quot;gradientUnits&quot;)&amp;&amp;w.transform(new x(-u,-f)),w.paintMesh(g.data,p.width),y.putImageData(g,0,0);const M=document.createElementNS(t,&quot;image&quot;);d(M,{width:l,height:c,x:0,y:0});let S=p.toDataURL();M.setAttributeNS(e,&quot;xlink:href&quot;,S);const k=&quot;pattern_clip&quot;+n,A=document.createElementNS(t,&quot;pattern&quot;);d(A,{id:k,patternUnits:&quot;userSpaceOnUse&quot;,width:l,height:c,x:u,y:f}),A.appendChild(M),o.parentNode.appendChild(A),r.style.stroke=&quot;url(#&quot;+k+&quot;)&quot;,g=null,p=null,S=null}}})}();
</script>
</svg>
